#!OML:ASF H:\Punching\Project 1\Capture day 1\Session 1\female.ASF
:FULLY-SPECIFIED
:DEGREES
707
root -1.75232 14.523 5.77488 18.3248 5.65169 -1.15822
lowerback 5.14657 -1.70532 -2.81861
upperback -2.77859 -2.50517 -0.15663
thorax -5.66229 -1.13508 1.66466
lowerneck -7.7942 3.98406 14.422
upperneck 29.7765 3.13596 -1.0088
head 11.3098 2.8767 -2.45556
rclavicle -2.08724e-014 -8.74653e-015
rhumerus 11.2049 25.2524 -78.8259
rradius 134.422
rwrist -43.5496
rhand -14.5153 -5.69333
rfingers 7.12502
rthumb 11.6322 -35.3505
lclavicle -2.08724e-014 -8.74653e-015
lhumerus 18.062 -22.6594 75.0172
lradius 135.539
lwrist 43.9245
lhand -11.1269 33.9894
lfingers 7.12502
lthumb 14.8983 63.4337
rfemur -55.45 7.43873 11.5718
rtibia 57.3883
rfoot -17.0442 -8.01811
rtoes -2.94608
lfemur -6.73274 -7.93732 -0.453322
ltibia 30.4622
lfoot -23.9649 1.87228
ltoes -37.3489
708
root -1.77415 14.5408 5.79405 18.3934 7.84401 -0.787356
lowerback 5.16509 -1.3969 -2.3618
upperback -2.87683 -2.05495 -0.0645242
thorax -5.80863 -0.924817 1.46396
lowerneck -8.24082 3.06806 13.4437
upperneck 29.6529 1.76685 -0.268803
head 11.1984 2.24215 -2.18324
rclavicle 2.5842e-015 -2.38542e-015
rhumerus 10.9302 24.0312 -78.3246
rradius 134.892
rwrist -43.6306
rhand -14.7389 -5.84245
rfingers 7.12502
rthumb 11.4166 -35.5116
lclavicle 2.5842e-015 -2.38542e-015
lhumerus 17.3157 -24.8992 75.6479
lradius 138.119
lwrist 43.8214
lhand -11.0854 33.8204
lfingers 7.12502
lthumb 14.9382 63.2617
rfemur -54.7818 6.1545 11.5195
rtibia 57.5339
rfoot -17.514 -8.79142
rtoes -3.26375
lfemur -7.37642 -8.96048 0.0129575
ltibia 29.6392
lfoot -23.6834 1.45711
ltoes -37.0063
709
root -1.79458 14.558 5.81276 18.4501 10.0515 -0.471544
lowerback 5.18572 -1.08836 -1.82462
upperback -2.96655 -1.59696 0.027998
thorax -5.94413 -0.715112 1.21584
lowerneck -8.62232 2.13411 12.4685
upperneck 29.4521 0.392828 0.479674
head 11.0733 1.60393 -1.90739
rclavicle -4.12478e-014 -1.98785e-015
rhumerus 10.672 22.732 -77.8015
rradius 135.366
rwrist -43.7364
rhand -14.9793 -5.9993
rfingers 7.12502
rthumb 11.1847 -35.6812
lclavicle -4.12478e-014 -1.98785e-015
lhumerus 16.7571 -27.0787 76.147
lradius 140.237
lwrist 43.0803
lhand -10.8139 33.5673
lfingers 7.12502
lthumb 15.1998 62.989
rfemur -54.0773 4.77754 11.5869
rtibia 57.6596
rfoot -17.9688 -9.47267
rtoes -3.57072
lfemur -8.00705 -9.9653 0.543231
ltibia 28.8003
lfoot -23.4105 1.05929
ltoes -36.6855
710
root -1.81373 14.575 5.83082 18.4963 12.268 -0.195671
lowerback 5.19852 -0.793991 -1.23476
upperback -3.0529 -1.15176 0.129574
thorax -6.06543 -0.514923 0.946908
lowerneck -8.91231 1.19807 11.4964
upperneck 29.1867 -0.953079 1.20946
head 10.9357 0.973466 -1.63458
rclavicle 3.27995e-015 2.34566e-014
rhumerus 10.4406 21.3879 -77.2547
rradius 135.837
rwrist -43.9102
rhand -15.1638 -6.13399
rfingers 7.12502
rthumb 11.0067 -35.8254
lclavicle 3.27995e-015 2.34566e-014
lhumerus 16.3383 -29.1245 76.5342
lradius 141.933
lwrist 41.8969
lhand -10.3636 33.2249
lfingers 7.12502
lthumb 15.6335 62.6132
rfemur -53.3531 3.309 11.7506
rtibia 57.772
rfoot -18.4072 -10.0714
rtoes -3.81298
lfemur -8.62789 -10.9483 1.11906
ltibia 27.9425
lfoot -23.1423 0.67638
ltoes -36.3818
711
root -1.8316 14.5913 5.8482 18.5294 14.4587 0.0461926
lowerback 5.19188 -0.504765 -0.611562
upperback -3.14032 -0.709207 0.234064
thorax -6.17001 -0.318515 0.660934
lowerneck -9.08369 0.263882 10.5278
upperneck 28.8585 -2.26452 1.92616
head 10.7805 0.353266 -1.36192
rclavicle -4.84538e-016 1.38652e-014
rhumerus 10.2156 19.9984 -76.6979
rradius 136.306
rwrist -44.1873
rhand -15.2877 -6.25597
rfingers 7.12502
rthumb 10.8873 -35.9537
lclavicle -4.84538e-016 1.38652e-014
lhumerus 16.036 -31.0163 76.8239
lradius 143.26
lwrist 40.4906
lhand -9.85253 32.8333
lfingers 7.12502
lthumb 16.1257 62.1824
rfemur -52.6256 1.78959 11.9838
rtibia 57.8703
rfoot -18.8216 -10.6071
rtoes -3.98421
lfemur -9.22335 -11.8967 1.71749
ltibia 27.0672
lfoot -22.8758 0.318416
ltoes -36.0889
712
root -1.84808 14.6068 5.86484 18.5477 16.5962 0.261615
lowerback 5.16327 -0.218824 0.0215267
upperback -3.22529 -0.268999 0.342787
thorax -6.25207 -0.124616 0.373026
lowerneck -9.16372 -0.65815 9.54572
upperneck 28.5002 -3.53426 2.63915
head 10.6251 -0.252995 -1.08242
rclavicle 3.36443e-014 1.48095e-014
rhumerus 10.02 18.5764 -76.1208
rradius 136.765
rwrist -44.5795
rhand -15.3601 -6.39426
rfingers 7.12502
rthumb 10.8175 -36.0957
lclavicle 3.36443e-014 1.48095e-014
lhumerus 15.8557 -32.7139 77.0312
lradius 144.265
lwrist 39.0678
lhand -9.40034 32.4419
lfingers 7.12502
lthumb 16.561 61.7552
rfemur -51.9045 0.257428 12.2592
rtibia 57.9522
rfoot -19.2055 -11.1016
rtoes -4.07571
lfemur -9.78022 -12.8042 2.31551
ltibia 26.1759
lfoot -22.6037 -0.00750548
ltoes -35.7774
